<svg width="16" height="20" viewBox="0 0 16 20" fill="none" xmlns="http://www.w3.org/2000/svg">
<path d="M7.68647 6.0185C6.95647 6.0185 5.82647 5.1885 4.63647 5.2185C3.06647 5.2385 1.62647 6.1285 0.816474 7.5385C-0.813526 10.3685 0.396474 14.5485 1.98647 16.8485C2.76647 17.9685 3.68647 19.2285 4.90647 19.1885C6.07647 19.1385 6.51647 18.4285 7.93647 18.4285C9.34647 18.4285 9.74647 19.1885 10.9865 19.1585C12.2465 19.1385 13.0465 18.0185 13.8165 16.8885C14.7065 15.5885 15.0765 14.3285 15.0965 14.2585C15.0665 14.2485 12.6465 13.3185 12.6165 10.5185C12.5965 8.1785 14.5265 7.0585 14.6165 7.0085C13.5165 5.3985 11.8265 5.2185 11.2365 5.1785C9.69647 5.0585 8.40647 6.0185 7.68647 6.0185V6.0185ZM10.2865 3.6585C10.9365 2.8785 11.3665 1.7885 11.2465 0.708496C10.3165 0.748496 9.19647 1.3285 8.52647 2.1085C7.92647 2.7985 7.40647 3.9085 7.54647 4.9685C8.57647 5.0485 9.63647 4.4385 10.2865 3.6585V3.6585Z" fill="#7F818B"/>
</svg>
