<svg width="15" height="16" viewBox="0 0 15 16" fill="none" xmlns="http://www.w3.org/2000/svg">
<path fill-rule="evenodd" clip-rule="evenodd" d="M7.5 14.875C11.297 14.875 14.375 11.797 14.375 8C14.375 4.20304 11.297 1.125 7.5 1.125C3.70304 1.125 0.625 4.20304 0.625 8C0.625 11.797 3.70304 14.875 7.5 14.875ZM5.05931 10.4407C4.74689 10.1283 4.74689 9.62173 5.05931 9.30932L6.36863 8L5.05931 6.69069C4.74689 6.37827 4.74689 5.87173 5.05931 5.55931C5.37173 5.2469 5.87827 5.2469 6.19069 5.55931L7.5 6.86863L8.80931 5.55931C9.12173 5.2469 9.62827 5.2469 9.94069 5.55931C10.2531 5.87173 10.2531 6.37827 9.94069 6.69069L8.63137 8L9.94069 9.30932C10.2531 9.62173 10.2531 10.1283 9.94069 10.4407C9.62827 10.7531 9.12173 10.7531 8.80931 10.4407L7.5 9.13137L6.19069 10.4407C5.87827 10.7531 5.37173 10.7531 5.05931 10.4407Z" fill="#7F818B"/>
</svg>
