<svg width="16" height="16" viewBox="0 0 16 16" fill="none" xmlns="http://www.w3.org/2000/svg">
<path d="M12.5833 6.13406C12.5833 4.97133 12.1005 3.85623 11.2409 3.03406C10.3814 2.21189 9.21558 1.75 8 1.75C6.78442 1.75 5.61864 2.21189 4.75909 3.03406C3.89955 3.85623 3.41667 4.97133 3.41667 6.13406C3.41667 9.44337 2.19567 11.2233 1.33368 12.0675C1.14529 12.252 1.29337 12.7101 1.55706 12.7101H5.1263C5.24327 12.7101 5.34536 12.7907 5.3828 12.9015C5.5616 13.4307 6.21324 14.875 8 14.875C9.78676 14.875 10.4384 13.4307 10.6172 12.9015C10.6546 12.7907 10.7567 12.7101 10.8737 12.7101H14.4429C14.7066 12.7101 14.8547 12.252 14.6663 12.0675C13.8043 11.2233 12.5833 9.44336 12.5833 6.13406Z" fill="#7F818B"/>
</svg>
