<svg width="82" height="71" viewBox="0 0 82 71" fill="none" xmlns="http://www.w3.org/2000/svg">
<path d="M2.66699 18.6663V60.833C2.66699 62.8663 3.47473 64.8164 4.91251 66.2542C6.35029 67.6919 8.30033 68.4997 10.3337 68.4997H64.0003M71.667 53.1663C73.7003 53.1663 75.6504 52.3586 77.0881 50.9208C78.5259 49.483 79.3337 47.533 79.3337 45.4997V22.4997C79.3337 20.4663 78.5259 18.5163 77.0881 17.0785C75.6504 15.6407 73.7003 14.833 71.667 14.833H56.717C55.4348 14.8456 54.1699 14.5364 53.0381 13.9336C51.9064 13.3309 50.9438 12.4539 50.2387 11.383L47.1337 6.78301C46.4356 5.72298 45.4852 4.85284 44.3679 4.25069C43.2506 3.64854 42.0012 3.33322 40.732 3.33301H25.667C23.6337 3.33301 21.6836 4.14074 20.2458 5.57852C18.8081 7.0163 18.0003 8.96635 18.0003 10.9997V45.4997C18.0003 47.533 18.8081 49.483 20.2458 50.9208C21.6836 52.3586 23.6337 53.1663 25.667 53.1663H71.667Z" stroke="#828282" stroke-width="5" stroke-linecap="round" stroke-linejoin="round"/>
</svg>
