<svg width="17" height="18" viewBox="0 0 17 18" fill="none" xmlns="http://www.w3.org/2000/svg">
<path d="M1.55366 5.25817C2.247 3.87754 3.31064 2.71693 4.62569 1.90606C5.94074 1.09519 7.45538 0.666018 9.00033 0.666504C11.2462 0.666504 13.1328 1.4915 14.5753 2.83734L12.1862 5.22734C11.322 4.4015 10.2237 3.98067 9.00033 3.98067C6.82949 3.98067 4.99199 5.44734 4.33783 7.4165C4.17116 7.9165 4.07616 8.44984 4.07616 8.99984C4.07616 9.54984 4.17116 10.0832 4.33783 10.5832C4.99283 12.5532 6.82949 14.019 9.00033 14.019C10.1212 14.019 11.0753 13.7232 11.822 13.2232C12.2549 12.9382 12.6254 12.5684 12.9113 12.1361C13.1972 11.7038 13.3925 11.2181 13.4853 10.7082H9.00033V7.48484H16.8487C16.947 8.02984 17.0003 8.59817 17.0003 9.189C17.0003 11.7273 16.092 13.864 14.5153 15.314C13.137 16.5873 11.2503 17.3332 9.00033 17.3332C7.90585 17.3336 6.82202 17.1184 5.81078 16.6997C4.79954 16.2811 3.8807 15.6673 3.10679 14.8934C2.33288 14.1195 1.71907 13.2006 1.30044 12.1894C0.881804 11.1781 0.666555 10.0943 0.666993 8.99984C0.666993 7.65484 0.988659 6.38317 1.55366 5.25817Z" fill="#7F818B"/>
</svg>
