<svg width="15" height="16" viewBox="0 0 15 16" fill="none" xmlns="http://www.w3.org/2000/svg">
<path fill-rule="evenodd" clip-rule="evenodd" d="M1.35254 5.40538C1.35254 3.44504 2.93606 1.85254 4.89352 1.85254C6.25775 1.85254 6.86064 2.42342 7.50008 3.43551C8.13952 2.42342 8.74241 1.85254 10.1066 1.85254C12.0641 1.85254 13.6476 3.44504 13.6476 5.40538C13.6476 7.24047 12.6014 9.00514 11.4008 10.4693C10.2637 11.8562 8.922 13.0509 8.00607 13.8665C7.94651 13.9195 7.88875 13.9709 7.83297 14.0207C7.6433 14.1899 7.35686 14.1899 7.1672 14.0207C7.11141 13.9709 7.05365 13.9195 6.99409 13.8665C6.07816 13.0509 4.73647 11.8562 3.59932 10.4693C2.39879 9.00514 1.35254 7.24047 1.35254 5.40538Z" fill="#7F818B"/>
</svg>
