<svg width="778" height="275" viewBox="0 0 778 275" fill="none" xmlns="http://www.w3.org/2000/svg">
    <g clip-path="url(#clip0_56207_4916)">
        <path
            d="M372.13 114.66C363.8 114.66 356.41 113.47 349.99 111.1C343.56 108.73 338.18 105.23 333.84 100.59C329.5 95.9599 326.2 90.2599 323.94 83.4899C321.68 76.7199 320.55 68.8199 320.55 59.7899C320.55 47.8699 322.6 37.9099 326.71 29.9199C330.82 21.9299 336.72 15.8799 344.42 11.7699C352.12 7.65986 361.35 5.60986 372.12 5.60986C380.34 5.60986 387.63 6.76986 394 9.07986C400.37 11.3999 405.75 14.8099 410.15 19.3299C414.55 23.8399 417.9 29.4899 420.22 36.2599C422.53 43.0299 423.69 50.8799 423.69 59.7899C423.69 71.7099 421.69 81.7599 417.7 89.9199C413.71 98.0799 407.92 104.25 400.34 108.41C392.76 112.58 383.35 114.66 372.12 114.66H372.13ZM371.96 94.1699C378.67 94.1699 384 92.8099 387.94 90.0899C391.87 87.3699 394.65 83.4299 396.27 78.2799C397.89 73.1299 398.7 66.9699 398.7 59.7899C398.7 52.6099 397.86 46.5699 396.18 41.6399C394.5 36.7199 391.75 33.0199 387.93 30.5299C384.11 28.0399 378.84 26.7999 372.13 26.7999C365.42 26.7999 360.29 28.0499 356.41 30.5299C352.53 33.0199 349.75 36.7199 348.08 41.6399C346.4 46.5599 345.56 52.6099 345.56 59.7899C345.56 66.9699 346.37 73.0999 347.99 78.1999C349.61 83.2999 352.36 87.2299 356.24 90.0099C360.12 92.7899 365.36 94.1799 371.96 94.1799V94.1699Z"
            fill="black" />
        <path
            d="M456.519 50.9299H464.159L458.779 60.8299C460.169 54.5799 462.309 48.9599 465.209 43.9899C468.099 39.0099 471.689 35.0499 475.979 32.0999C480.259 29.1499 484.949 27.6699 490.049 27.6699C494.569 27.6699 498.469 28.7699 501.769 30.9699C505.069 33.1699 507.609 36.3499 509.409 40.5199C511.199 44.6899 512.099 49.7799 512.099 55.7999V112.24H488.309V62.2299C488.309 59.4499 487.929 57.0799 487.179 55.1099C486.429 53.1399 485.209 51.6399 483.529 50.5999C481.849 49.5599 479.739 49.0399 477.189 49.0399C473.719 49.0399 470.649 49.9099 467.989 51.6399C465.329 53.3799 463.239 55.7499 461.739 58.7599C460.229 61.7699 459.479 65.1299 459.479 68.8299V112.24H435.859V29.9199H458.259V60.8299L456.519 50.9299Z"
            fill="black" />
        <path
            d="M366.919 242.09C358.579 242.09 351.579 241.31 345.909 239.75C340.239 238.19 335.639 236.02 332.109 233.24C328.579 230.46 325.919 227.25 324.119 223.6C322.319 219.95 321.199 215.99 320.729 211.71L343.829 206.5C344.749 210.67 346.229 214.03 348.259 216.57C350.279 219.12 352.919 220.94 356.159 222.04C359.399 223.14 363.159 223.69 367.449 223.69C373.809 223.69 378.449 222.77 381.339 220.91C384.229 219.06 385.679 216.39 385.679 212.92C385.679 210.38 385.039 208.14 383.769 206.23C382.499 204.32 380.059 202.61 376.479 201.11C372.889 199.61 367.619 198.27 360.679 197.12C351.189 195.5 343.689 193.24 338.189 190.35C332.689 187.46 328.809 183.81 326.559 179.41C324.299 175.01 323.169 169.86 323.169 163.96C323.169 154.01 326.699 146.36 333.759 141.04C340.819 135.72 351.759 133.05 366.579 133.05C375.839 133.05 383.359 134.18 389.149 136.44C394.939 138.7 399.309 141.88 402.259 145.99C405.209 150.1 407.039 155.05 407.729 160.84L382.719 165.18C382.139 162.17 381.299 159.6 380.199 157.45C379.099 155.31 377.389 153.69 375.079 152.59C372.759 151.49 369.459 150.94 365.179 150.94C359.039 150.94 354.559 151.84 351.719 153.63C348.879 155.43 347.469 158.17 347.469 161.88C347.469 163.96 347.989 165.9 349.029 167.7C350.069 169.5 352.179 171.12 355.369 172.56C358.549 174.01 363.269 175.42 369.519 176.81C378.319 178.55 385.409 180.54 390.789 182.8C396.169 185.06 400.309 187.61 403.209 190.44C406.099 193.28 408.039 196.34 409.029 199.64C410.009 202.94 410.509 206.56 410.509 210.49C410.509 217.2 409.029 222.94 406.079 227.68C403.129 232.43 398.439 236.01 392.009 238.45C385.579 240.88 377.219 242.1 366.919 242.1V242.09Z"
            fill="black" />
        <path
            d="M416.06 157.35H472.32V175.06H416.06V157.35ZM426.83 213.79V135.48H450.45V210.84C450.45 214.08 451.17 216.51 452.62 218.13C454.07 219.75 456.53 220.56 460 220.56C461.85 220.56 463.7 220.39 465.56 220.04C467.41 219.69 469.15 219.23 470.77 218.65L473.55 238.97C471.47 239.55 469.5 240.07 467.65 240.53C465.8 240.99 463.8 241.37 461.66 241.66C459.52 241.95 457 242.09 454.11 242.09C447.74 242.09 442.53 240.81 438.48 238.27C434.43 235.72 431.47 232.31 429.62 228.02C427.77 223.74 426.84 218.99 426.84 213.78L426.83 213.79Z"
            fill="black" />
        <path
            d="M501.32 241.4C497.04 241.4 493.13 240.62 489.6 239.06C486.07 237.5 483.26 235.07 481.18 231.77C479.1 228.47 478.05 224.1 478.05 218.66C478.05 211.48 480.39 205.58 485.08 200.95C489.77 196.32 497.61 194 508.61 194H532.57V204.07H513.81C509.64 204.07 506.26 204.94 503.65 206.67C501.04 208.41 499.74 211.07 499.74 214.66C499.74 216.51 500.11 218.16 500.87 219.61C501.62 221.06 502.89 222.21 504.69 223.08C506.48 223.95 508.88 224.38 511.9 224.38C515.6 224.38 518.81 223.68 521.54 222.3C524.26 220.91 526.37 218.97 527.88 216.48C529.38 213.99 530.14 211.13 530.14 207.88V186.17C530.14 182 529.21 178.76 527.36 176.45C525.51 174.14 522.21 172.98 517.46 172.98C513.75 172.98 510.86 173.96 508.78 175.93C506.7 177.9 505.19 180.5 504.27 183.74L482.22 176.79C483.38 172.51 485.55 168.71 488.73 165.42C491.91 162.12 495.99 159.55 500.97 157.69C505.95 155.84 511.79 154.91 518.51 154.91C526.85 154.91 533.56 156.13 538.65 158.56C543.74 160.99 547.48 164.52 549.85 169.15C552.22 173.78 553.41 179.51 553.41 186.34V239.65H532.4V213.6L533.96 220.55H526.84L531.18 215.34C529.68 219.97 527.62 224.28 525.02 228.28C522.41 232.27 519.2 235.46 515.38 237.83C511.56 240.2 506.87 241.39 501.31 241.39L501.32 241.4Z"
            fill="black" />
        <path
            d="M588.319 210.14L591.099 212.05L588.489 216.91C587.909 217.84 587.449 218.79 587.099 219.78C586.749 220.76 586.579 221.72 586.579 222.65C586.579 224.27 587.189 225.43 588.399 226.12C589.609 226.81 591.839 227.16 595.079 227.16H620.259C629.289 227.16 636.029 228.96 640.489 232.54C644.949 236.13 647.179 241.16 647.179 247.65C647.179 254.14 645.729 259.02 642.839 263.02C639.949 267.01 635.109 269.94 628.339 271.79C621.569 273.64 612.279 274.57 600.469 274.57C590.399 274.57 582.519 273.9 576.849 272.57C571.179 271.24 567.179 269.27 564.869 266.67C562.549 264.07 561.399 261.08 561.399 257.73C561.399 254.6 562.729 251.91 565.389 249.66C568.049 247.4 571.349 245.52 575.289 244.02C579.219 242.51 583.109 241.42 586.919 240.72L591.959 241.24C589.409 241.24 587.149 241.61 585.189 242.37C583.219 243.12 581.689 244.13 580.589 245.41C579.489 246.68 578.939 248.13 578.939 249.75C578.939 251.72 579.629 253.37 581.019 254.7C582.409 256.03 584.929 257.01 588.569 257.65C592.219 258.28 597.399 258.6 604.109 258.6C610.819 258.6 615.629 258.22 619.219 257.47C622.809 256.72 625.329 255.65 626.769 254.26C628.219 252.87 628.939 251.13 628.939 249.05C628.939 246.5 628.009 244.56 626.159 243.23C624.309 241.9 621.409 241.23 617.479 241.23H588.649C584.019 241.23 580.229 240.71 577.279 239.67C574.329 238.63 572.189 237.15 570.849 235.24C569.519 233.33 568.849 231.22 568.849 228.9C568.849 226.47 569.659 224.3 571.279 222.39C572.899 220.48 575.159 218.66 578.049 216.92L588.289 210.15L588.319 210.14ZM610.369 170.55L618.179 170.38L617.829 177.67L609.319 173.85C613.019 174.31 616.699 174.92 620.349 175.67C623.999 176.42 627.349 177.44 630.419 178.71C633.489 179.99 635.919 181.61 637.709 183.57C639.499 185.54 640.399 188.03 640.399 191.04C640.399 195.67 638.949 199.84 636.059 203.54C633.169 207.25 628.939 210.2 623.379 212.4C617.819 214.6 611.049 215.7 603.059 215.7C590.899 215.7 581.499 213.21 574.839 208.23C568.179 203.25 564.859 196.13 564.859 186.87C564.859 180.39 566.389 174.97 569.459 170.63C572.529 166.29 576.949 162.99 582.739 160.73C588.529 158.47 595.469 157.34 603.579 157.34H645.949V173.14H637.269C635.299 173.14 632.989 173.03 630.319 172.79C627.659 172.56 624.649 172.27 621.289 171.92C617.929 171.57 614.279 171.11 610.349 170.53L610.369 170.55ZM579.109 243.31V238.8H585.709L586.059 241.4L579.109 243.31ZM603.069 174.02C596.699 174.02 592.269 175.27 589.789 177.75C587.309 180.23 586.059 183.22 586.059 186.69C586.059 190.16 587.299 193.29 589.789 195.72C592.279 198.15 596.709 199.37 603.069 199.37C609.429 199.37 614.099 198.15 616.699 195.72C619.299 193.29 620.609 190.28 620.609 186.69C620.609 183.1 619.219 180.09 616.439 177.66C613.659 175.23 609.199 174.01 603.069 174.01V174.02Z"
            fill="black" />
        <path
            d="M692.68 241.92C684.46 241.92 677.2 240.44 670.89 237.49C664.58 234.54 659.69 229.97 656.22 223.77C652.75 217.58 651.01 209.73 651.01 200.24C651.01 190.75 652.66 182.5 655.96 175.84C659.26 169.18 664 164.03 670.2 160.39C676.39 156.74 684.01 154.92 693.03 154.92C701.48 154.92 708.4 156.43 713.78 159.44C719.16 162.45 723.18 166.71 725.85 172.2C728.51 177.7 729.84 184.27 729.84 191.91C729.84 193.53 729.81 195.33 729.75 197.29C729.69 199.26 729.55 201.23 729.32 203.19H667.85V192.42H713.69L708.31 196.07C708.77 187.62 707.7 181.31 705.1 177.14C702.5 172.97 698.24 170.89 692.34 170.89C686.44 170.89 681.66 173.03 678.71 177.32C675.76 181.6 674.28 188.61 674.28 198.33C674.28 207.48 675.76 214.1 678.71 218.21C681.66 222.32 686.38 224.37 692.86 224.37C696.56 224.37 699.49 223.88 701.63 222.89C703.77 221.91 705.42 220.58 706.58 218.9C707.74 217.22 708.6 215.34 709.18 213.26L728.63 218.3C727.47 222.81 725.62 226.87 723.07 230.45C720.52 234.04 716.88 236.85 712.13 238.87C707.38 240.89 700.9 241.91 692.68 241.91V241.92Z"
            fill="black" />
        <path d="M757.87 203.5L777.7 223.33L758.68 242.35L738.85 222.52L757.87 203.5Z"
            fill="black" />
        <path
            d="M4.78 4.78V9.56H207.21C221.39 9.56 234.18 15.29 243.47 24.58C252.76 33.88 258.49 46.67 258.49 60.84V236.79H62.11C47.58 236.79 34.48 230.92 24.95 221.4C15.43 211.88 9.56 198.77 9.56 184.24V4.78H4.78H0V184.24C0 201.38 6.96 216.93 18.19 228.16C29.41 239.39 44.97 246.35 62.11 246.35H268.06V60.84C268.06 44.05 261.24 28.81 250.24 17.82C239.24 6.82 224 0 207.21 0H0V4.78H4.78Z"
            fill="black" />
        <path
            d="M91.32 147.63L85.28 137.74C82.14 132.6 76.56 129.47 70.54 129.47H49.25C49.28 143.08 51.42 154.97 55.69 165.21C59.99 175.51 66.37 183.56 74.81 189.31C83.26 195.03 93.65 197.91 105.97 197.91C117.67 197.91 127.44 195.34 135.33 190.21C144.27 184.39 149.26 178.04 155.57 168.98C161.41 160.6 169.21 147.51 175.03 129.47H143.99C136.69 129.47 130.02 133.6 126.77 140.14L126.71 140.27C125.13 143.42 122.68 147.88 117.49 151.41C114.21 153.64 110.16 154.78 105.3 154.78C98.93 154.78 94.28 152.4 91.34 147.63H91.32Z"
            fill="black" />
        <path
            d="M154.43 48.4402C167.49 48.3502 178.56 51.4102 187.75 57.6902C196.91 63.9402 203.84 72.5402 208.57 83.5302C213.27 94.5102 215.62 107.08 215.62 121.28C215.62 121.96 215.62 122.64 215.59 123.32C207.58 123.32 199.58 123.32 191.57 123.32C184.39 123.32 178.41 118.1 177.09 111.05C176.75 109.21 176.19 107.28 175.34 105.31C174.25 102.8 172.39 98.7902 167.98 95.7202C164.82 93.5202 161.05 92.4102 156.81 92.4102C152.04 92.4102 148.24 93.8602 145.42 96.7102C142.64 99.5602 139.94 103.92 137.47 109.8L137.42 109.91C133.94 118.04 125.95 123.32 117.11 123.32H88.8896C90.3396 120.32 91.8597 117.04 93.4697 113.45C97.0296 105.31 100.31 97.3602 103.34 89.6202C106.37 81.8502 109.9 74.9202 113.83 68.7302C117.82 62.5702 122.99 57.6502 129.36 53.9702C135.8 50.2602 144.15 48.4302 154.42 48.4302L154.43 48.4402Z"
            fill="black" />
    </g>
    <defs>
        <clipPath id="clip0_56207_4916">
            <rect width="777.7" height="274.56" fill="white" />
        </clipPath>
    </defs>
</svg>
