<svg width="128" height="46" viewBox="0 0 128 46" fill="none" xmlns="http://www.w3.org/2000/svg">
    <g clip-path="url(#clip0_56792_6553)">
        <path
            d="M61.2473 18.8712C59.8762 18.8712 58.6599 18.6753 57.6033 18.2852C56.545 17.8952 55.6595 17.3191 54.9452 16.5554C54.2309 15.7934 53.6877 14.8552 53.3158 13.741C52.9438 12.6267 52.7578 11.3265 52.7578 9.84022C52.7578 7.87834 53.0952 6.23904 53.7717 4.92398C54.4481 3.60893 55.4192 2.61317 56.6865 1.93671C57.9539 1.26026 59.473 0.922852 61.2456 0.922852C62.5985 0.922852 63.7984 1.11377 64.8468 1.49397C65.8952 1.87582 66.7807 2.43706 67.5049 3.181C68.2291 3.92329 68.7804 4.85321 69.1623 5.96747C69.5425 7.08173 69.7334 8.37374 69.7334 9.84022C69.7334 11.8021 69.4042 13.4562 68.7475 14.7993C68.0908 16.1423 67.1379 17.1578 65.8903 17.8425C64.6427 18.5288 63.0939 18.8712 61.2456 18.8712H61.2473ZM61.2193 15.4988C62.3237 15.4988 63.2009 15.2749 63.8494 14.8272C64.4962 14.3796 64.9538 13.7311 65.2204 12.8835C65.487 12.0358 65.6204 11.022 65.6204 9.84022C65.6204 8.65848 65.4821 7.66437 65.2056 6.85295C64.9291 6.04318 64.4765 5.43421 63.8477 5.02438C63.219 4.61456 62.3516 4.41047 61.2473 4.41047C60.1429 4.41047 59.2985 4.6162 58.6599 5.02438C58.0213 5.43421 57.5638 6.04318 57.2889 6.85295C57.0124 7.66273 56.8742 8.65848 56.8742 9.84022C56.8742 11.022 57.0075 12.0309 57.2741 12.8703C57.5407 13.7097 57.9934 14.3565 58.632 14.8141C59.2706 15.2716 60.133 15.5004 61.2193 15.5004V15.4988Z"
            fill="white" />
        <path
            d="M75.1377 8.38203H76.3951L75.5097 10.0114C75.7384 8.98277 76.0907 8.05779 76.568 7.23979C77.0436 6.42014 77.6345 5.76837 78.3406 5.28284C79.045 4.7973 79.8169 4.55371 80.6563 4.55371C81.4003 4.55371 82.0422 4.73476 82.5853 5.09685C83.1284 5.45894 83.5465 5.98233 83.8427 6.66867C84.1374 7.355 84.2855 8.19275 84.2855 9.18357V18.4729H80.3699V10.2419C80.3699 9.78431 80.3074 9.39424 80.184 9.07C80.0605 8.74576 79.8597 8.49888 79.5832 8.32771C79.3067 8.15654 78.9594 8.07095 78.5397 8.07095C77.9686 8.07095 77.4633 8.21415 77.0255 8.49888C76.5877 8.78527 76.2437 9.17534 75.9968 9.67075C75.7483 10.1662 75.6249 10.7192 75.6249 11.3281V18.4729H71.7373V4.92403H75.4241V10.0114L75.1377 8.38203Z"
            fill="white" />
        <path
            d="M60.3894 39.8451C59.0168 39.8451 57.8646 39.7167 56.9314 39.46C55.9982 39.2032 55.2411 38.8461 54.6601 38.3885C54.0791 37.9309 53.6413 37.4026 53.3451 36.8019C53.0488 36.2011 52.8645 35.5494 52.7871 34.8449L56.5891 33.9874C56.7405 34.6737 56.9841 35.2268 57.3182 35.6448C57.6507 36.0645 58.0852 36.3641 58.6185 36.5451C59.1517 36.7262 59.7706 36.8167 60.4767 36.8167C61.5234 36.8167 62.2871 36.6653 62.7628 36.3591C63.2384 36.0546 63.4771 35.6152 63.4771 35.0441C63.4771 34.626 63.3718 34.2573 63.1627 33.943C62.9537 33.6286 62.5521 33.3472 61.9629 33.1003C61.372 32.8534 60.5046 32.6329 59.3624 32.4436C57.8005 32.1769 56.566 31.805 55.6608 31.3293C54.7556 30.8537 54.117 30.2529 53.7467 29.5287C53.3747 28.8045 53.1887 27.9569 53.1887 26.9858C53.1887 25.3482 53.7697 24.0891 54.9317 23.2135C56.0937 22.3379 57.8943 21.8984 60.3335 21.8984C61.8575 21.8984 63.0952 22.0844 64.0482 22.4564C65.0012 22.8284 65.7204 23.3517 66.206 24.0282C66.6915 24.7047 66.9927 25.5194 67.1063 26.4723L62.9899 27.1866C62.8945 26.6912 62.7562 26.2682 62.5752 25.9144C62.3941 25.5622 62.1127 25.2955 61.7325 25.1145C61.3506 24.9334 60.8075 24.8429 60.103 24.8429C59.0925 24.8429 58.3551 24.991 57.8877 25.2857C57.4203 25.5819 57.1882 26.0329 57.1882 26.6435C57.1882 26.9858 57.2738 27.3051 57.4449 27.6014C57.6161 27.8977 57.9634 28.1643 58.4884 28.4013C59.0118 28.64 59.7887 28.872 60.8173 29.1008C62.2657 29.3872 63.4327 29.7147 64.3181 30.0867C65.2036 30.4587 65.885 30.8784 66.3623 31.3441C66.838 31.8116 67.1573 32.3152 67.3202 32.8583C67.4815 33.4015 67.5638 33.9973 67.5638 34.6441C67.5638 35.7485 67.3202 36.6932 66.8347 37.4734C66.3491 38.2552 65.5772 38.8444 64.5189 39.246C63.4606 39.6459 62.0847 39.8467 60.3894 39.8467V39.8451Z"
            fill="white" />
        <path
            d="M68.4785 25.8974H77.7382V28.8122H68.4785V25.8974ZM70.2511 35.1867V22.2979H74.1387V34.7012C74.1387 35.2345 74.2572 35.6344 74.4958 35.901C74.7345 36.1677 75.1394 36.301 75.7105 36.301C76.015 36.301 76.3195 36.273 76.6256 36.2154C76.9301 36.1578 77.2165 36.0821 77.4831 35.9866L77.9407 39.3311C77.5983 39.4265 77.2741 39.5121 76.9696 39.5878C76.6651 39.6635 76.3359 39.7261 75.9837 39.7738C75.6315 39.8215 75.2167 39.8446 74.7411 39.8446C73.6927 39.8446 72.8352 39.6339 72.1686 39.2158C71.502 38.7961 71.0148 38.2349 70.7103 37.5288C70.4058 36.8244 70.2528 36.0426 70.2528 35.1851L70.2511 35.1867Z"
            fill="white" />
        <path
            d="M82.5106 39.7313C81.8062 39.7313 81.1627 39.6029 80.5817 39.3462C80.0007 39.0894 79.5382 38.6895 79.1958 38.1463C78.8535 37.6032 78.6807 36.8839 78.6807 35.9886C78.6807 34.8068 79.0658 33.8358 79.8377 33.0737C80.6096 32.3117 81.9 31.9298 83.7105 31.9298H87.654V33.5872H84.5663C83.88 33.5872 83.3237 33.7304 82.8941 34.0152C82.4645 34.3015 82.2506 34.7393 82.2506 35.3302C82.2506 35.6347 82.3115 35.9063 82.4366 36.1449C82.56 36.3836 82.769 36.5729 83.0653 36.716C83.3599 36.8592 83.7549 36.93 84.252 36.93C84.8609 36.93 85.3893 36.8148 85.8386 36.5877C86.2863 36.3589 86.6336 36.0396 86.8821 35.6298C87.129 35.2199 87.2541 34.7492 87.2541 34.2143V30.6411C87.2541 29.9548 87.101 29.4215 86.7965 29.0413C86.492 28.6611 85.9489 28.4702 85.1671 28.4702C84.5565 28.4702 84.0808 28.6315 83.7385 28.9557C83.3961 29.28 83.1476 29.7079 82.9962 30.2412L79.367 29.0973C79.5579 28.3928 79.9151 27.7674 80.4385 27.2259C80.9619 26.6828 81.6334 26.2598 82.453 25.9536C83.2727 25.6492 84.2339 25.4961 85.3399 25.4961C86.7126 25.4961 87.8169 25.6969 88.6547 26.0968C89.4924 26.4968 90.108 27.0778 90.4981 27.8398C90.8881 28.6019 91.084 29.545 91.084 30.6691V39.4433H87.626V35.1558L87.8828 36.2996H86.7109L87.4252 35.4421C87.1783 36.2042 86.8393 36.9136 86.4114 37.5719C85.9818 38.2286 85.4535 38.7536 84.8247 39.1437C84.196 39.5338 83.4241 39.7297 82.509 39.7297L82.5106 39.7313Z"
            fill="white" />
        <path
            d="M96.8291 34.5857L97.2867 34.9001L96.8571 35.7C96.7617 35.8531 96.6859 36.0094 96.6283 36.1724C96.5707 36.3337 96.5428 36.4917 96.5428 36.6447C96.5428 36.9114 96.6432 37.1023 96.8423 37.2159C97.0415 37.3294 97.4085 37.387 97.9418 37.387H102.086C103.572 37.387 104.682 37.6833 105.416 38.2725C106.15 38.8634 106.517 39.6913 106.517 40.7594C106.517 41.8276 106.278 42.6308 105.802 43.2892C105.327 43.9459 104.53 44.4281 103.416 44.7326C102.302 45.0371 100.773 45.1901 98.8289 45.1901C97.1715 45.1901 95.8745 45.0799 94.9413 44.861C94.0081 44.6421 93.3498 44.3178 92.9696 43.8899C92.5877 43.462 92.3984 42.9699 92.3984 42.4185C92.3984 41.9033 92.6173 41.4606 93.0551 41.0903C93.4929 40.7183 94.0361 40.4089 94.6846 40.162C95.3314 39.9135 95.9716 39.7341 96.5987 39.6188L97.4282 39.7044C97.0085 39.7044 96.6366 39.7653 96.314 39.8904C95.9897 40.0139 95.7379 40.1801 95.5569 40.3908C95.3758 40.5998 95.2853 40.8384 95.2853 41.1051C95.2853 41.4293 95.3989 41.7009 95.6277 41.9198C95.8564 42.1387 96.2712 42.3 96.8703 42.4053C97.471 42.509 98.3236 42.5617 99.428 42.5617C100.532 42.5617 101.324 42.4991 101.915 42.3757C102.506 42.2523 102.921 42.0761 103.158 41.8474C103.396 41.6186 103.515 41.3322 103.515 40.9899C103.515 40.5702 103.362 40.2509 103.057 40.032C102.753 39.8131 102.275 39.7028 101.629 39.7028H96.8835C96.1214 39.7028 95.4976 39.6172 95.0121 39.446C94.5266 39.2749 94.1743 39.0313 93.9538 38.7169C93.7349 38.4025 93.6246 38.0553 93.6246 37.6734C93.6246 37.2735 93.7579 36.9163 94.0246 36.602C94.2912 36.2876 94.6632 35.988 95.1388 35.7017L96.8242 34.5874L96.8291 34.5857ZM100.458 28.0697L101.744 28.0417L101.686 29.2416L100.285 28.6129C100.894 28.6886 101.5 28.789 102.101 28.9124C102.702 29.0358 103.253 29.2037 103.758 29.4128C104.264 29.6234 104.664 29.8901 104.958 30.2126C105.253 30.5369 105.401 30.9467 105.401 31.4421C105.401 32.2042 105.162 32.8905 104.687 33.4995C104.211 34.1101 103.515 34.5956 102.6 34.9577C101.684 35.3198 100.57 35.5009 99.2552 35.5009C97.2538 35.5009 95.7067 35.091 94.6105 34.2714C93.5143 33.4517 92.9679 32.2799 92.9679 30.7558C92.9679 29.6893 93.2197 28.7972 93.725 28.0829C94.2303 27.3686 94.9578 26.8254 95.9107 26.4535C96.8637 26.0815 98.0059 25.8955 99.3408 25.8955H106.314V28.496H104.886C104.561 28.496 104.181 28.4779 103.742 28.4384C103.304 28.4005 102.809 28.3528 102.256 28.2952C101.703 28.2376 101.102 28.1619 100.455 28.0664L100.458 28.0697ZM95.3133 40.0451V39.3028H96.3996L96.4572 39.7308L95.3133 40.0451ZM99.2568 28.6408C98.2084 28.6408 97.4793 28.8466 97.0711 29.2547C96.6629 29.6629 96.4572 30.155 96.4572 30.7262C96.4572 31.2973 96.6613 31.8124 97.0711 32.2124C97.4809 32.6123 98.21 32.8131 99.2568 32.8131C100.304 32.8131 101.072 32.6123 101.5 32.2124C101.928 31.8124 102.144 31.317 102.144 30.7262C102.144 30.1353 101.915 29.6399 101.457 29.2399C101 28.84 100.266 28.6392 99.2568 28.6392V28.6408Z"
            fill="white" />
        <path
            d="M114.007 39.8162C112.654 39.8162 111.459 39.5726 110.42 39.0871C109.382 38.6016 108.577 37.8494 108.006 36.8289C107.435 35.8101 107.148 34.5181 107.148 32.9562C107.148 31.3943 107.42 30.0364 107.963 28.9402C108.506 27.8441 109.286 26.9965 110.307 26.3974C111.326 25.7966 112.58 25.4971 114.064 25.4971C115.455 25.4971 116.594 25.7456 117.48 26.241C118.365 26.7364 119.027 27.4376 119.466 28.3411C119.904 29.2464 120.123 30.3277 120.123 31.5852C120.123 31.8518 120.118 32.1481 120.108 32.4707C120.098 32.7949 120.075 33.1191 120.037 33.4417H109.92V31.6691H117.465L116.579 32.2699C116.655 30.8791 116.479 29.8405 116.051 29.1542C115.623 28.4679 114.922 28.1255 113.951 28.1255C112.98 28.1255 112.193 28.4778 111.708 29.1838C111.222 29.8883 110.978 31.042 110.978 32.6418C110.978 34.1478 111.222 35.2374 111.708 35.9138C112.193 36.5903 112.97 36.9277 114.036 36.9277C114.645 36.9277 115.128 36.847 115.48 36.6841C115.832 36.5228 116.104 36.3039 116.295 36.0274C116.486 35.7509 116.627 35.4415 116.723 35.0991L119.924 35.9286C119.733 36.6709 119.428 37.3392 119.009 37.9284C118.589 38.5193 117.99 38.9818 117.208 39.3142C116.426 39.6467 115.36 39.8146 114.007 39.8146V39.8162Z"
            fill="white" />
        <path d="M124.736 33.4932L128 36.7569L124.869 39.8874L121.605 36.6236L124.736 33.4932Z"
            fill="white" />
        <path
            d="M0.78673 0.78673V1.57346H34.1043C36.4381 1.57346 38.5432 2.51655 40.0722 4.04557C41.6012 5.57624 42.5443 7.68132 42.5443 10.0135V38.9728H10.2226C7.83109 38.9728 5.67499 38.0066 4.10647 36.4398C2.53959 34.8729 1.57346 32.7151 1.57346 30.3237V0.78673H0.78673H0V30.3237C0 33.1447 1.14553 35.7041 2.99385 37.5524C4.84053 39.4007 7.40152 40.5462 10.2226 40.5462H44.1194V10.0135C44.1194 7.2501 42.9969 4.74178 41.1865 2.93296C39.376 1.12249 36.8677 0 34.1043 0H0V0.78673H0.78673Z"
            fill="white" />
        <path
            d="M15.0297 24.2975L14.0356 22.6697C13.5188 21.8238 12.6004 21.3086 11.6095 21.3086H8.10547C8.11041 23.5486 8.46262 25.5056 9.16541 27.191C9.87314 28.8862 10.9232 30.2112 12.3123 31.1575C13.7031 32.099 15.4132 32.573 17.4409 32.573C19.3666 32.573 20.9746 32.15 22.2732 31.3057C23.7446 30.3478 24.5659 29.3026 25.6045 27.8115C26.5656 26.4322 27.8494 24.2778 28.8073 21.3086H23.6985C22.497 21.3086 21.3992 21.9883 20.8643 23.0647L20.8544 23.0861C20.5944 23.6046 20.1912 24.3387 19.3369 24.9197C18.7971 25.2867 18.1305 25.4743 17.3306 25.4743C16.2822 25.4743 15.5169 25.0826 15.033 24.2975H15.0297Z"
            fill="white" />
        <path
            d="M25.416 7.97235C27.5655 7.95754 29.3875 8.46117 30.9001 9.49479C32.4077 10.5235 33.5483 11.9389 34.3268 13.7477C35.1004 15.5549 35.4871 17.6238 35.4871 19.9609C35.4871 20.0729 35.4871 20.1848 35.4822 20.2967C34.1638 20.2967 32.8471 20.2967 31.5288 20.2967C30.3471 20.2967 29.3628 19.4375 29.1456 18.2772C29.0896 17.9744 28.9974 17.6567 28.8575 17.3325C28.6781 16.9193 28.372 16.2593 27.6462 15.7541C27.1261 15.392 26.5056 15.2093 25.8077 15.2093C25.0226 15.2093 24.3972 15.4479 23.9331 15.917C23.4755 16.3861 23.0311 17.1037 22.6246 18.0715L22.6164 18.0896C22.0436 19.4277 20.7285 20.2967 19.2736 20.2967H14.6289C14.8676 19.8029 15.1177 19.2631 15.3827 18.6722C15.9687 17.3325 16.5085 16.024 17.0072 14.7501C17.5059 13.4712 18.0869 12.3306 18.7337 11.3118C19.3904 10.298 20.2414 9.4882 21.2898 8.88252C22.3497 8.2719 23.724 7.9707 25.4144 7.9707L25.416 7.97235Z"
            fill="white" />
    </g>
    <defs>
        <clipPath id="clip0_56792_6553">
            <rect width="128" height="45.1892" fill="white" />
        </clipPath>
    </defs>
</svg>
