<svg width="46" height="42" viewBox="0 0 46 42" fill="none" xmlns="http://www.w3.org/2000/svg">
    <g clip-path="url(#clip0_56795_32402)">
        <path
            d="M0.820133 0.814796V1.62959H35.558C37.9905 1.62959 40.1855 2.60735 41.781 4.19052C43.3746 5.77567 44.3577 7.95636 44.3587 10.3731V40.3694H10.6587C8.16653 40.3694 5.91688 39.368 4.28258 37.7453C2.64928 36.1216 1.64225 33.8866 1.64126 31.4106V0.814796H0.821127H0V31.4106C0 34.332 1.19391 36.9848 3.12147 38.8979C5.04804 40.8129 7.7172 42 10.6577 41.999H45.999V10.3731C45.999 7.51093 44.8289 4.91248 42.9412 3.03795C41.0543 1.16244 38.4389 0 35.559 0H0V0.814796H0.820133Z"
            fill="white" />
        <path
            d="M15.6713 25.1705L14.6345 23.4836C14.0957 22.6076 13.1374 22.0732 12.1045 22.0732H8.45117C8.45614 24.3942 8.82297 26.4198 9.55562 28.1659C10.2932 29.9229 11.3877 31.2938 12.8371 32.2755C14.2865 33.2513 16.071 33.7421 18.1834 33.7421C20.1905 33.7421 21.8685 33.3046 23.2225 32.4286C24.7574 31.436 25.6123 30.3526 26.6949 28.8099C27.697 27.3818 29.035 25.1487 30.0341 22.0732H24.7067C23.4541 22.0732 22.3089 22.7784 21.7512 23.8925L21.7403 23.9142C21.4699 24.4515 21.0484 25.2119 20.1577 25.8134C19.595 26.1936 18.8992 26.3882 18.0661 26.3882C16.9726 26.3882 16.1763 25.9823 15.6713 25.1695V25.1705Z"
            fill="white" />
        <path
            d="M26.5011 8.25881C28.7418 8.24301 30.6425 8.76547 32.2192 9.83606C33.7909 10.9017 34.9798 12.3683 35.793 14.2409C36.6002 16.1134 37.0038 18.2556 37.0038 20.6763C37.0038 20.7928 37.0038 20.9084 36.9988 21.0249C35.625 21.0249 34.2511 21.0249 32.8773 21.0249C31.6456 21.0249 30.6187 20.1361 30.392 18.9321C30.3334 18.6181 30.2369 18.2882 30.0908 17.9544C29.9029 17.5267 29.5848 16.8433 28.8273 16.3189C28.2855 15.9446 27.6374 15.7539 26.9107 15.7539C26.0925 15.7539 25.4394 16.0018 24.9563 16.4868C24.4781 16.9717 24.0169 17.7164 23.5914 18.7178L23.5834 18.7376C22.987 20.1242 21.6151 21.023 20.0981 21.023H15.2559C15.5054 20.5114 15.7658 19.9524 16.0412 19.34C16.6516 17.9524 17.2142 16.5964 17.7351 15.2779C18.2551 13.9535 18.8605 12.7723 19.5355 11.7175C20.2204 10.6676 21.1071 9.82915 22.2006 9.20101C23.3051 8.56794 24.7386 8.25684 26.5011 8.25684V8.25881Z"
            fill="white" />
    </g>
    <defs>
        <clipPath id="clip0_56795_32402">
            <rect width="46" height="42" fill="white" />
        </clipPath>
    </defs>
</svg>
