<svg width="463" height="426" viewBox="0 0 463 426" fill="none" xmlns="http://www.w3.org/2000/svg">
    <path
        d="M8.25 8.25V16.5H357.69C382.16 16.5 404.24 26.4 420.29 42.43C436.32 58.48 446.21 80.56 446.22 105.03V408.75H107.22C82.15 408.75 59.52 398.61 43.08 382.18C26.65 365.74 16.52 343.11 16.51 318.04V8.25H8.26H0V318.04C0 347.62 12.01 374.48 31.4 393.85C50.78 413.24 77.63 425.26 107.21 425.25H462.72V105.03C462.72 76.05 450.95 49.74 431.96 30.76C412.98 11.77 386.67 0 357.7 0H0V8.25H8.25Z"
        fill="black" />
    <path
        d="M157.64 254.85L147.21 237.77C141.79 228.9 132.15 223.49 121.76 223.49H85.0098C85.0598 246.99 88.7498 267.5 96.1198 285.18C103.54 302.97 114.55 316.85 129.13 326.79C143.71 336.67 161.66 341.64 182.91 341.64C203.1 341.64 219.98 337.21 233.6 328.34C249.04 318.29 257.64 307.32 268.53 291.7C278.61 277.24 292.07 254.63 302.12 223.49H248.53C235.93 223.49 224.41 230.63 218.8 241.91L218.69 242.13C215.97 247.57 211.73 255.27 202.77 261.36C197.11 265.21 190.11 267.18 181.73 267.18C170.73 267.18 162.72 263.07 157.64 254.84V254.85Z"
        fill="black" />
    <path
        d="M266.58 83.6201C289.12 83.4601 308.24 88.7501 324.1 99.5901C339.91 110.38 351.87 125.23 360.05 144.19C368.17 163.15 372.23 184.84 372.23 209.35C372.23 210.53 372.23 211.7 372.18 212.88C358.36 212.88 344.54 212.88 330.72 212.88C318.33 212.88 308 203.88 305.72 191.69C305.13 188.51 304.16 185.17 302.69 181.79C300.8 177.46 297.6 170.54 289.98 165.23C284.53 161.44 278.01 159.51 270.7 159.51C262.47 159.51 255.9 162.02 251.04 166.93C246.23 171.84 241.59 179.38 237.31 189.52L237.23 189.72C231.23 203.76 217.43 212.86 202.17 212.86H153.46C155.97 207.68 158.59 202.02 161.36 195.82C167.5 181.77 173.16 168.04 178.4 154.69C183.63 141.28 189.72 129.32 196.51 118.64C203.4 108.01 212.32 99.5201 223.32 93.1601C234.43 86.7501 248.85 83.6001 266.58 83.6001V83.6201Z"
        fill="black" />
</svg>
