<svg width="16" height="16" viewBox="0 0 16 16" fill="none" xmlns="http://www.w3.org/2000/svg">
<path fill-rule="evenodd" clip-rule="evenodd" d="M6.0002 3.79995C5.33745 3.79995 4.8002 4.33721 4.8002 4.99995C4.8002 5.66269 5.33745 6.19995 6.0002 6.19995C6.66294 6.19995 7.2002 5.66269 7.2002 4.99995C7.2002 4.33721 6.66294 3.79995 6.0002 3.79995ZM2.0002 5.79995H3.31615C3.66037 6.95655 4.73179 7.79995 6.0002 7.79995C7.2686 7.79995 8.34002 6.95655 8.68424 5.79995H14.0002C14.442 5.79995 14.8002 5.44178 14.8002 4.99995C14.8002 4.55812 14.442 4.19995 14.0002 4.19995H8.68424C8.34002 3.04336 7.2686 2.19995 6.0002 2.19995C4.73179 2.19995 3.66037 3.04336 3.31615 4.19995H2.0002C1.55837 4.19995 1.2002 4.55812 1.2002 4.99995C1.2002 5.44178 1.55837 5.79995 2.0002 5.79995ZM12.6842 11.8C12.34 12.9565 11.2686 13.8 10.0002 13.8C8.73179 13.8 7.66037 12.9565 7.31615 11.8H2.0002C1.55837 11.8 1.2002 11.4418 1.2002 11C1.2002 10.5581 1.55837 10.2 2.0002 10.2H7.31615C7.66037 9.04336 8.73179 8.19995 10.0002 8.19995C11.2686 8.19995 12.34 9.04336 12.6842 10.2H14.0002C14.442 10.2 14.8002 10.5581 14.8002 11C14.8002 11.4418 14.442 11.8 14.0002 11.8H12.6842ZM8.8002 11C8.8002 10.3372 9.33745 9.79995 10.0002 9.79995C10.6629 9.79995 11.2002 10.3372 11.2002 11C11.2002 11.6627 10.6629 12.2 10.0002 12.2C9.33745 12.2 8.8002 11.6627 8.8002 11Z" fill="#74777F"/>
</svg>
