<svg width="58" height="53" viewBox="0 0 58 53" fill="none" xmlns="http://www.w3.org/2000/svg">
<g clip-path="url(#clip0_56374_19458)">
<path d="M1.02819 1.02819V2.05639H44.5788C47.6285 2.05639 50.3803 3.29022 52.3806 5.28804C54.3784 7.28834 55.611 10.0402 55.6122 13.0899V50.9424H13.3628C10.2383 50.9424 7.41796 49.6786 5.36904 47.631C3.32138 45.582 2.05888 42.7617 2.05764 39.6372V1.02819H1.02944H0V39.6372C0 43.3238 1.4968 46.6713 3.91337 49.0854C6.32869 51.502 9.675 53 13.3615 52.9988H57.6686V13.0899C57.6686 9.47808 56.2017 6.19908 53.835 3.83361C51.4695 1.46689 48.1905 0 44.58 0H0V1.02819H1.02819Z" fill="#004788"/>
<path d="M19.6466 31.7619L18.3467 29.6332C17.6712 28.5278 16.4698 27.8535 15.1749 27.8535H10.5947C10.601 30.7823 11.0608 33.3385 11.9794 35.5419C12.9041 37.7591 14.2763 39.4889 16.0934 40.7278C17.9105 41.9591 20.1476 42.5785 22.796 42.5785C25.3122 42.5785 27.416 42.0264 29.1134 40.9209C31.0377 39.6684 32.1095 38.3012 33.4668 36.3545C34.723 34.5524 36.4005 31.7345 37.6531 27.8535H30.9742C29.4038 27.8535 27.9681 28.7434 27.2689 30.1492L27.2552 30.1766C26.9162 30.8546 26.3878 31.8142 25.2711 32.5732C24.5657 33.0531 23.6933 33.2986 22.6489 33.2986C21.278 33.2986 20.2797 32.7864 19.6466 31.7607V31.7619Z" fill="#004788"/>
<path d="M33.2241 10.4214C36.0332 10.4015 38.4162 11.0608 40.3928 12.4118C42.3632 13.7565 43.8537 15.6073 44.8732 17.9703C45.8852 20.3332 46.3912 23.0365 46.3912 26.0911C46.3912 26.2382 46.3912 26.384 46.385 26.5311C44.6626 26.5311 42.9402 26.5311 41.2178 26.5311C39.6737 26.5311 38.3862 25.4094 38.1021 23.8902C38.0286 23.4938 37.9077 23.0776 37.7245 22.6563C37.4889 22.1167 37.0901 21.2542 36.1404 20.5925C35.4612 20.1201 34.6486 19.8796 33.7376 19.8796C32.7119 19.8796 31.893 20.1924 31.2873 20.8043C30.6879 21.4163 30.1096 22.356 29.5762 23.6197L29.5662 23.6446C28.8184 25.3944 27.0985 26.5286 25.1967 26.5286H19.126C19.4388 25.883 19.7653 25.1776 20.1105 24.4049C20.8758 22.6538 21.5812 20.9427 22.2342 19.2789C22.8861 17.6076 23.645 16.117 24.4913 14.786C25.35 13.4612 26.4617 12.403 27.8326 11.6104C29.2172 10.8115 31.0144 10.4189 33.2241 10.4189V10.4214Z" fill="#004788"/>
</g>
<defs>
<clipPath id="clip0_56374_19458">
<rect width="57.6699" height="53" fill="white"/>
</clipPath>
</defs>
</svg>
