<svg width="15" height="16" viewBox="0 0 15 16" fill="none" xmlns="http://www.w3.org/2000/svg">
<path fill-rule="evenodd" clip-rule="evenodd" d="M8.30003 1.6667C8.30003 1.22487 7.94186 0.866699 7.50003 0.866699C7.0582 0.866699 6.70003 1.22487 6.70003 1.6667V7.20003H1.1667C0.724871 7.20003 0.366699 7.5582 0.366699 8.00003C0.366699 8.44186 0.724871 8.80003 1.1667 8.80003H6.70003V14.3334C6.70003 14.7752 7.0582 15.1334 7.50003 15.1334C7.94186 15.1334 8.30003 14.7752 8.30003 14.3334V8.80003H13.8334C14.2752 8.80003 14.6334 8.44186 14.6334 8.00003C14.6334 7.5582 14.2752 7.20003 13.8334 7.20003H8.30003V1.6667Z" fill="#7366FF"/>
</svg>
