<svg width="21" height="21" viewBox="0 0 21 21" fill="none" xmlns="http://www.w3.org/2000/svg">
<path fill-rule="evenodd" clip-rule="evenodd" d="M3.16683 2.5026C3.16683 2.87079 2.86835 3.16927 2.50016 3.16927C2.13197 3.16927 1.8335 2.87079 1.8335 2.5026C1.8335 2.13441 2.13197 1.83594 2.50016 1.83594C2.86835 1.83594 3.16683 2.13441 3.16683 2.5026ZM3.4335 7.43594V13.5693H17.5668V7.43594H3.4335ZM2.8335 5.83594C2.28121 5.83594 1.8335 6.28365 1.8335 6.83594V14.1693C1.8335 14.7216 2.28121 15.1693 2.8335 15.1693H18.1668C18.7191 15.1693 19.1668 14.7216 19.1668 14.1693V6.83594C19.1668 6.28365 18.7191 5.83594 18.1668 5.83594H2.8335ZM2.50016 19.1693C2.86835 19.1693 3.16683 18.8708 3.16683 18.5026C3.16683 18.1344 2.86835 17.8359 2.50016 17.8359C2.13197 17.8359 1.8335 18.1344 1.8335 18.5026C1.8335 18.8708 2.13197 19.1693 2.50016 19.1693ZM5.8335 2.5026C5.8335 2.87079 5.53502 3.16927 5.16683 3.16927C4.79864 3.16927 4.50016 2.87079 4.50016 2.5026C4.50016 2.13441 4.79864 1.83594 5.16683 1.83594C5.53502 1.83594 5.8335 2.13441 5.8335 2.5026ZM5.16683 19.1693C5.53502 19.1693 5.8335 18.8708 5.8335 18.5026C5.8335 18.1344 5.53502 17.8359 5.16683 17.8359C4.79864 17.8359 4.50016 18.1344 4.50016 18.5026C4.50016 18.8708 4.79864 19.1693 5.16683 19.1693ZM8.50016 2.5026C8.50016 2.87079 8.20169 3.16927 7.8335 3.16927C7.46531 3.16927 7.16683 2.87079 7.16683 2.5026C7.16683 2.13441 7.46531 1.83594 7.8335 1.83594C8.20169 1.83594 8.50016 2.13441 8.50016 2.5026ZM7.8335 19.1693C8.20169 19.1693 8.50016 18.8708 8.50016 18.5026C8.50016 18.1344 8.20169 17.8359 7.8335 17.8359C7.46531 17.8359 7.16683 18.1344 7.16683 18.5026C7.16683 18.8708 7.46531 19.1693 7.8335 19.1693ZM11.1668 2.5026C11.1668 2.87079 10.8684 3.16927 10.5002 3.16927C10.132 3.16927 9.8335 2.87079 9.8335 2.5026C9.8335 2.13441 10.132 1.83594 10.5002 1.83594C10.8684 1.83594 11.1668 2.13441 11.1668 2.5026ZM10.5002 19.1693C10.8684 19.1693 11.1668 18.8708 11.1668 18.5026C11.1668 18.1344 10.8684 17.8359 10.5002 17.8359C10.132 17.8359 9.8335 18.1344 9.8335 18.5026C9.8335 18.8708 10.132 19.1693 10.5002 19.1693ZM13.8335 2.5026C13.8335 2.87079 13.535 3.16927 13.1668 3.16927C12.7986 3.16927 12.5002 2.87079 12.5002 2.5026C12.5002 2.13441 12.7986 1.83594 13.1668 1.83594C13.535 1.83594 13.8335 2.13441 13.8335 2.5026ZM13.1668 19.1693C13.535 19.1693 13.8335 18.8708 13.8335 18.5026C13.8335 18.1344 13.535 17.8359 13.1668 17.8359C12.7986 17.8359 12.5002 18.1344 12.5002 18.5026C12.5002 18.8708 12.7986 19.1693 13.1668 19.1693ZM16.5002 2.5026C16.5002 2.87079 16.2017 3.16927 15.8335 3.16927C15.4653 3.16927 15.1668 2.87079 15.1668 2.5026C15.1668 2.13441 15.4653 1.83594 15.8335 1.83594C16.2017 1.83594 16.5002 2.13441 16.5002 2.5026ZM15.8335 19.1693C16.2017 19.1693 16.5002 18.8708 16.5002 18.5026C16.5002 18.1344 16.2017 17.8359 15.8335 17.8359C15.4653 17.8359 15.1668 18.1344 15.1668 18.5026C15.1668 18.8708 15.4653 19.1693 15.8335 19.1693ZM19.1668 2.5026C19.1668 2.87079 18.8684 3.16927 18.5002 3.16927C18.132 3.16927 17.8335 2.87079 17.8335 2.5026C17.8335 2.13441 18.132 1.83594 18.5002 1.83594C18.8684 1.83594 19.1668 2.13441 19.1668 2.5026ZM18.5002 19.1693C18.8684 19.1693 19.1668 18.8708 19.1668 18.5026C19.1668 18.1344 18.8684 17.8359 18.5002 17.8359C18.132 17.8359 17.8335 18.1344 17.8335 18.5026C17.8335 18.8708 18.132 19.1693 18.5002 19.1693Z" fill="#828282"/>
</svg>
