<svg width="15" height="12" viewBox="0 0 15 12" fill="none" xmlns="http://www.w3.org/2000/svg">
<path d="M4.5 6C5.95078 6 7.125 4.82578 7.125 3.375C7.125 1.92422 5.95078 0.75 4.5 0.75C3.04922 0.75 1.875 1.92422 1.875 3.375C1.875 4.82578 3.04922 6 4.5 6ZM6.3 6.75H6.10547C5.61797 6.98438 5.07656 7.125 4.5 7.125C3.92344 7.125 3.38438 6.98438 2.89453 6.75H2.7C1.20937 6.75 0 7.95938 0 9.45V10.125C0 10.7461 0.503906 11.25 1.125 11.25H7.875C8.49609 11.25 9 10.7461 9 10.125V9.45C9 7.95938 7.79062 6.75 6.3 6.75ZM11.25 6C12.4922 6 13.5 4.99219 13.5 3.75C13.5 2.50781 12.4922 1.5 11.25 1.5C10.0078 1.5 9 2.50781 9 3.75C9 4.99219 10.0078 6 11.25 6ZM12.375 6.75H12.2859C11.9602 6.8625 11.6156 6.9375 11.25 6.9375C10.8844 6.9375 10.5398 6.8625 10.2141 6.75H10.125C9.64688 6.75 9.20625 6.88828 8.81953 7.11094C9.39141 7.72734 9.75 8.54531 9.75 9.45V10.35C9.75 10.4016 9.73828 10.4508 9.73594 10.5H13.875C14.4961 10.5 15 9.99609 15 9.375C15 7.92422 13.8258 6.75 12.375 6.75Z" fill="#7F818B"/>
</svg>
